<?xml version="1.0" encoding="utf-8"?>
<!-- Generator: Adobe Illustrator 27.9.0, SVG Export Plug-In . SVG Version: 6.00 Build 0)  -->
<svg version="1.1" id="Layer_1" xmlns="http://www.w3.org/2000/svg" xmlns:xlink="http://www.w3.org/1999/xlink" x="0px" y="0px"
	 viewBox="0 0 256 256" style="enable-background:new 0 0 256 256;" xml:space="preserve">
<style type="text/css">
	.st0{fill:#FFFFFF;stroke:#000000;stroke-miterlimit:10;}
</style>
<g>
	<g>
		<g>
			<path class="st0" d="M203.3,85.4c1.3-0.5,3.1-1.1,4.5-1.6c5.2-1.7,11.8-3.8,16.3-8.3l1.3-1.4V74c4.5-5.1,6.9-11.6,6.9-18.5
				c0-7.5-2.9-14.6-8.3-19.9c-5.3-5.3-12.4-8.3-20-8.3c-7.3,0-14.3,2.8-19.6,7.9l-0.4,0.4c-4.5,4.5-6.7,10.8-8.5,15.8
				c-0.5,1.5-1.2,3.3-1.8,4.6c-0.1-0.1-0.1-0.1-0.2-0.2L128,10L80,58c-1,1-4,4-3.1,8.1c1,4.3,5.3,5.8,10,7.5
				c3.3,1.2,7.1,2.5,9.6,4.7l0.5,0.4c2.8,2.8,4.4,6.6,4.4,10.6s-1.6,7.8-4.4,10.6c-5.7,5.7-15.6,5.7-21.3,0L75,99.5
				c-2.1-2.4-3.3-6.3-4.4-9.7c-1.6-4.9-3.3-10.5-8.8-10.5c-2.2,0-4.3,1.1-6.5,3.3L10,128l118,118l42.3-42.3c1.1-1.1,4.5-4.5,3.5-8.9
				c-1.1-4.6-5.9-6.3-11.4-8.3c-4.4-1.5-9.3-3.3-12.4-6.4c-7.4-7.4-7.4-19.5,0-26.9c3.6-3.6,8.4-5.6,13.4-5.6c5.1,0,9.8,2,13.4,5.6
				l0.7,0.7c2.6,3,4.1,7.7,5.4,11.9c1.9,5.9,3.8,11.9,9.7,11.9c3.2,0,5.6-2.1,7.2-3.6L246,128L203.3,85.4z M193.4,167.5
				c-0.5-1.3-1.1-3.1-1.6-4.5c-1.7-5.2-3.8-11.8-8.3-16.3l-1.6-1.5h-0.1c-5.1-4.4-11.5-6.8-18.4-6.8c-7.5,0-14.6,2.9-20,8.3
				c-11,11-11,28.9,0,40c4.5,4.5,10.8,6.7,15.8,8.5c1.5,0.5,3.3,1.2,4.6,1.8c-0.1,0.1-0.1,0.1-0.2,0.2L128,232.9L23.1,128L61,90.1
				c0.3,0.8,0.6,1.8,0.9,2.6c1.4,4.4,3.2,9.9,7.1,13.9l1.3,1.3h0.1c4.4,3.8,9.9,5.8,15.8,5.8c6.5,0,12.6-2.5,17.1-7.1
				c4.6-4.6,7.1-10.7,7.1-17.1c0-6.2-2.3-12-6.5-16.5l-0.7-0.7c-3.9-3.9-9.2-5.8-13.4-7.3c-0.8-0.3-1.9-0.7-2.7-1L128,23.1
				l39.2,39.2c1.6,1.6,4.1,3.7,7.3,3.7c5.8,0,7.9-5.9,9.9-11.6c1.5-4.2,3.2-9,6-12l0.4-0.3c3.6-3.6,8.4-5.6,13.4-5.6
				c5.1,0,9.8,2,13.5,5.6c3.6,3.6,5.6,8.3,5.6,13.4s-2,9.8-5.6,13.4l-0.6,0.6c-3,2.6-7.8,4.1-12,5.5c-5.7,1.8-10.6,3.4-11.7,8
				c-1,4.3,2.3,7.7,3.5,8.8l36.2,36.2L193.4,167.5z"/>
		</g>
	</g>
</g>
</svg>
